<svg width="54" height="53" viewBox="0 0 54 53" fill="none" xmlns="http://www.w3.org/2000/svg">
<path d="M53.8931 23.5732C54.0416 25.0147 54.0296 27.6046 53.8931 29.056C53.7827 30.238 52.9837 32.0161 53.0961 33.3626H52.7047V26.1175C52.7047 23.9969 50.2939 19.4566 48.9068 17.73C44.9162 12.7621 33.7775 6.83575 28.9238 13.5818C23.0523 21.7416 39.0367 31.9983 40.3234 39.5285C41.7808 48.0566 36.4814 52.5553 28.3477 52.9651C13.8747 53.6958 1.36298 42.853 0 28.6679L3.09933 35.1961C5.82931 42.4629 19.8004 52.9572 26.1496 44.5261C30.2827 39.0374 24.2366 33.5804 21.4805 29.1708C15.2237 19.1636 6.41747 1.63612 25.5635 0.0778188C39.3398 -1.04289 52.496 10.0949 53.8931 23.5732ZM24.8489 2.8994C21.6732 3.61816 22.707 9.09104 26.1717 8.52672C30.1402 7.88122 29.5119 1.84205 24.8489 2.8994Z" fill="#FFFFFD"/>
<path d="M26.0713 38.1444L26.5471 40.0215C17.3193 39.3621 6.65032 33.7764 2.05752 25.6503C-0.584136 20.9753 1.98124 17.8944 3.56905 13.3937L6.26691 21.8822C9.82191 30.0539 17.0865 36.5445 26.0733 38.1444H26.0713Z" fill="#FFFFFD"/>
<path d="M26.1536 41.2016C25.9991 45.8627 21.6271 46.326 17.7348 45.7993C9.4365 44.6746 3.75172 34.6813 1.5858 27.4937L5.9357 32.7844C11.5141 37.6177 18.6863 40.8908 26.1536 41.2016Z" fill="#FFFFFD"/>
<path d="M24.9593 36.1129C24.8729 37.0118 23.0162 36.0654 22.5926 35.903C15.4385 33.1567 9.75567 26.4007 7.22843 19.3616C5.9357 15.7579 4.15118 11.4176 7.72424 8.69107C9.19562 19.722 15.6793 29.9351 24.9593 36.1129Z" fill="#FFFFFD"/>
<path d="M15.4525 3.21027C9.17354 9.74446 14.8985 18.8329 18.1584 25.4047L23.7709 34.1506C17.8312 28.9629 12.2347 21.2704 10.3298 13.558C9.92228 11.9126 9.04708 8.50494 9.573 6.99218C9.76972 6.42786 15.039 2.87564 15.4505 3.21225L15.4525 3.21027Z" fill="#FFFFFD"/>
<path d="M41.2167 37.2831L38.834 32.5884C42.943 31.2776 46.2913 28.2322 48.3006 24.5097L49.5291 20.4427C51.6408 27.5056 48.8326 35.2416 41.2167 37.2831Z" fill="#FFFFFD"/>
<path d="M42.403 41.9837L41.6041 38.4632C45.8376 37.5544 49.24 34.309 50.6131 30.3192L51.5124 25.9255C52.9175 33.4794 51.404 41.1759 42.403 41.9837Z" fill="#FFFFFD"/>
<path d="M40.0264 49.8168L42.3749 43.3282C45.0046 43.148 47.3752 42.2352 49.5311 40.8076C50.1152 41.4313 45.2635 46.124 44.591 46.6923C43.1759 47.8903 41.6122 48.8644 40.0264 49.8149V49.8168Z" fill="#FFFFFD"/>
</svg>
