<?xml version="1.0" encoding="UTF-8"?>
<svg id="Capa_1" xmlns="http://www.w3.org/2000/svg" xmlns:xlink="http://www.w3.org/1999/xlink" version="1.1" viewBox="0 0 1752.7 558.7">
  <!-- Generator: Adobe Illustrator 29.8.2, SVG Export Plug-In . SVG Version: 2.1.1 Build 3)  -->
  <defs>
    <style>
      .st0 {
        fill: url(#Degradado_sin_nombre);
      }

      .st1 {
        fill: url(#Degradado_sin_nombre_7);
      }

      .st2 {
        fill: url(#Degradado_sin_nombre_6);
      }

      .st3 {
        fill: url(#Degradado_sin_nombre_5);
      }

      .st4 {
        fill: url(#Degradado_sin_nombre_8);
      }

      .st5 {
        fill: url(#Degradado_sin_nombre_4);
      }

      .st6 {
        fill: url(#Degradado_sin_nombre_9);
      }

      .st7 {
        fill: url(#Degradado_sin_nombre_3);
      }

      .st8 {
        fill: url(#Degradado_sin_nombre_2);
      }

      .st9 {
        fill: #00c9ff;
      }

      .st10 {
        fill: #1f80ff;
      }
    </style>
    <linearGradient id="Degradado_sin_nombre" data-name="Degradado sin nombre" x1="-7.7" y1="396.8" x2="1275.7" y2="396.8" gradientTransform="translate(0 559) scale(1 -1)" gradientUnits="userSpaceOnUse">
      <stop offset="0" stop-color="#00c9ff"/>
      <stop offset="1" stop-color="#3347ff"/>
    </linearGradient>
    <linearGradient id="Degradado_sin_nombre_2" data-name="Degradado sin nombre 2" x1="-7.7" y1="321.5" x2="1275.7" y2="321.5" gradientTransform="translate(0 559) scale(1 -1)" gradientUnits="userSpaceOnUse">
      <stop offset="0" stop-color="#00c9ff"/>
      <stop offset="1" stop-color="#3347ff"/>
    </linearGradient>
    <linearGradient id="Degradado_sin_nombre_3" data-name="Degradado sin nombre 3" x1="-7.7" y1="357.5" x2="1275.7" y2="357.5" gradientTransform="translate(0 559) scale(1 -1)" gradientUnits="userSpaceOnUse">
      <stop offset="0" stop-color="#00c9ff"/>
      <stop offset="1" stop-color="#3347ff"/>
    </linearGradient>
    <linearGradient id="Degradado_sin_nombre_4" data-name="Degradado sin nombre 4" x1="-7.7" y1="321.5" x2="1275.7" y2="321.5" gradientTransform="translate(0 559) scale(1 -1)" gradientUnits="userSpaceOnUse">
      <stop offset="0" stop-color="#00c9ff"/>
      <stop offset="1" stop-color="#3347ff"/>
    </linearGradient>
    <linearGradient id="Degradado_sin_nombre_5" data-name="Degradado sin nombre 5" x1="-7.7" y1="357.5" x2="1275.7" y2="357.5" gradientTransform="translate(0 559) scale(1 -1)" gradientUnits="userSpaceOnUse">
      <stop offset="0" stop-color="#00c9ff"/>
      <stop offset="1" stop-color="#3347ff"/>
    </linearGradient>
    <linearGradient id="Degradado_sin_nombre_6" data-name="Degradado sin nombre 6" x1="1457.2" y1="175.5" x2="1318.5" y2="69.4" gradientTransform="translate(0 559) scale(1 -1)" gradientUnits="userSpaceOnUse">
      <stop offset="0" stop-color="#1f80ff"/>
      <stop offset="1" stop-color="#00c9ff"/>
    </linearGradient>
    <linearGradient id="Degradado_sin_nombre_7" data-name="Degradado sin nombre 7" x1="1508.2" y1="148" x2="1667.5" y2="148" gradientTransform="translate(0 559) scale(1 -1)" gradientUnits="userSpaceOnUse">
      <stop offset="0" stop-color="#1f80ff"/>
      <stop offset="1" stop-color="#3347ff"/>
    </linearGradient>
    <linearGradient id="Degradado_sin_nombre_8" data-name="Degradado sin nombre 8" x1="1426.8" y1="223.7" x2="1117.8" y2="159.2" gradientTransform="translate(0 559) scale(1 -1)" gradientUnits="userSpaceOnUse">
      <stop offset="0" stop-color="#1f80ff"/>
      <stop offset="1" stop-color="#00c9ff"/>
    </linearGradient>
    <linearGradient id="Degradado_sin_nombre_9" data-name="Degradado sin nombre 9" x1="1555.5" y1="220.7" x2="1751.7" y2="94.7" gradientTransform="translate(0 559) scale(1 -1)" gradientUnits="userSpaceOnUse">
      <stop offset="0" stop-color="#1f80ff"/>
      <stop offset="1" stop-color="#3347ff"/>
    </linearGradient>
  </defs>
  <g>
    <path class="st0" d="M701.6,282.6c-44.7,0-81.2-36.4-81.2-81.2V21.9c0-10.9-8.9-19.8-19.8-19.8s-19.8,8.9-19.8,19.8v179.6c0,66.6,54.2,120.8,120.8,120.8s19.8-8.9,19.8-19.8-8.9-19.9-19.8-19.9Z"/>
    <path class="st8" d="M120.7,80.7C57.9,80.7,6.2,128.9.5,190.2c-.3,1.5-.5,3-.5,4.6v179.6c0,10.9,8.9,19.8,19.8,19.8s19.8-8.9,19.8-19.8v-83.5c21.5,19.5,49.9,31.4,81.2,31.4,66.6,0,120.8-54.2,120.8-120.8s-54.3-120.8-120.9-120.8ZM120.7,282.6c-44.7,0-81.2-36.4-81.2-81.2s36.4-81.2,81.2-81.2,81.2,36.4,81.2,81.2-36.5,81.2-81.2,81.2Z"/>
    <path class="st7" d="M397.4,80.7c-66.6,0-120.8,54.2-120.8,120.8s54.2,120.8,120.8,120.8,120.8-54.2,120.8-120.8-54.2-120.8-120.8-120.8ZM397.4,282.6c-44.7,0-81.2-36.4-81.2-81.2s36.4-81.2,81.2-81.2,81.2,36.4,81.2,81.2-36.4,81.2-81.2,81.2Z"/>
    <path class="st5" d="M890.2,80.7c-62.8,0-114.5,48.2-120.2,109.5-.3,1.5-.5,3-.5,4.6v179.6c0,10.9,8.9,19.8,19.8,19.8s19.8-8.9,19.8-19.8v-83.5c21.5,19.5,49.9,31.4,81.2,31.4,66.6,0,120.8-54.2,120.8-120.8s-54.3-120.8-120.9-120.8ZM890.2,282.6c-44.7,0-81.2-36.4-81.2-81.2s36.4-81.2,81.2-81.2,81.2,36.4,81.2,81.2-36.5,81.2-81.2,81.2Z"/>
    <path class="st3" d="M1166.9,80.7c-66.6,0-120.8,54.2-120.8,120.8s54.2,120.8,120.8,120.8,120.8-54.2,120.8-120.8-54.2-120.8-120.8-120.8ZM1166.9,282.6c-44.7,0-81.2-36.4-81.2-81.2s36.4-81.2,81.2-81.2,81.2,36.4,81.2,81.2-36.4,81.2-81.2,81.2Z"/>
  </g>
  <g>
    <path class="st9" d="M3.6,513.3c2.1,1.4,4.3,2.5,6.6,3.2,2.3.7,4.6,1.1,7.1,1.1s3.4-.2,4.8-.6c1.4-.4,2.7-1,3.7-1.8s1.8-1.7,2.4-2.8.8-2.3.8-3.7-.4-3.1-1.2-4.3c-.8-1.2-1.8-2.2-3.1-3.1-1.3-.9-2.8-1.6-4.4-2.3s-3.3-1.4-5.1-2.1c-1.7-.7-3.4-1.4-5.1-2.3-1.6-.8-3.1-1.8-4.4-3s-2.3-2.6-3.1-4.2c-.8-1.6-1.2-3.5-1.2-5.8s.4-4.2,1.3-5.9c.8-1.8,2-3.3,3.6-4.6s3.4-2.3,5.6-3,4.6-1,7.3-1,5.2.3,7.7,1,4.7,1.7,6.6,3l-1.9,5.6c-1.8-1.3-3.7-2.2-5.8-2.9-2.1-.7-4.3-1-6.5-1s-3.2.2-4.5.6c-1.3.4-2.4,1-3.4,1.7-.9.7-1.6,1.6-2.1,2.6s-.7,2.1-.7,3.3.4,3,1.2,4.2c.8,1.1,1.8,2.1,3.1,3,1.3.8,2.8,1.6,4.4,2.3s3.3,1.4,5.1,2.1c1.7.7,3.4,1.5,5.1,2.3,1.6.8,3.1,1.9,4.4,3,1.3,1.2,2.3,2.6,3.1,4.2.8,1.6,1.2,3.6,1.2,5.9s-.5,4.5-1.4,6.4-2.2,3.5-3.8,4.8c-1.6,1.3-3.6,2.3-5.9,3.1s-4.9,1.1-7.6,1.1-2.9,0-4.3-.3-2.8-.5-4.1-.9c-1.3-.4-2.6-.8-3.8-1.4-1.2-.6-2.3-1.2-3.2-1.9l1.5-5.6Z"/>
    <path class="st9" d="M98.1,516.4c-2.7,2.3-5.6,4-8.8,5.2s-6.9,1.9-10.8,1.9-7.3-.7-10.5-2c-3.1-1.3-5.8-3.2-8-5.6-2.2-2.4-3.9-5.3-5.1-8.8-1.2-3.4-1.8-7.3-1.8-11.6s.6-8.2,1.8-11.7,2.8-6.5,4.9-8.9c2.1-2.5,4.5-4.4,7.4-5.7,2.8-1.3,5.9-2,9.2-2s6,.6,8.5,1.7c2.6,1.2,4.8,2.8,6.6,5,1.8,2.1,3.3,4.7,4.3,7.7s1.5,6.4,1.5,10.1v1.7c0,.6-.1,1.1-.2,1.6h-36.8v1.4c0,3.2.5,6,1.4,8.6s2.2,4.8,3.8,6.6,3.6,3.2,5.9,4.2c2.3,1,4.9,1.5,7.8,1.5s6.5-.6,9.2-1.7c2.7-1.1,5.3-2.8,7.8-5l1.9,5.8ZM90.2,489.6c0-2.4-.4-4.6-1.1-6.6-.7-2-1.6-3.8-2.9-5.3-1.2-1.5-2.7-2.7-4.5-3.5-1.7-.8-3.6-1.2-5.7-1.2s-3.9.4-5.6,1.1c-1.7.8-3.3,1.8-4.6,3.3-1.4,1.4-2.5,3.2-3.4,5.2-.9,2.1-1.6,4.4-1.9,7h29.7Z"/>
    <path class="st9" d="M120,468h5.5l.6,7.6c1.1-1.5,2.3-2.9,3.4-4,1.1-1.1,2.2-2,3.4-2.7,1.1-.7,2.2-1.2,3.4-1.5,1.1-.3,2.2-.5,3.4-.5s2,0,3,.3c.9.2,1.8.6,2.6,1l-.9,6.3c-.8-.5-1.6-.8-2.5-1.1s-1.7-.4-2.6-.4-1.7,0-2.7.4-1.9.7-2.9,1.4-2.1,1.6-3.2,2.8c-1.1,1.2-2.3,2.7-3.4,4.5v40.4h-7v-54.5h-.1Z"/>
    <path class="st9" d="M201.5,468c-2.3,9.1-5.1,18.2-8.4,27.3s-7,18.1-11.2,27.1h-8.1c-4.2-9-7.9-18-11.2-27.1s-6.1-18.2-8.3-27.3h7.2c.9,3.9,2,7.9,3.2,12,1.2,4,2.5,8.1,3.9,12.1s2.9,8.1,4.5,12c1.6,4,3.2,7.9,4.9,11.7,1.6-3.8,3.3-7.7,4.8-11.7,1.6-4,3.1-8,4.5-12s2.7-8.1,3.9-12.1c1.2-4,2.3-8,3.2-12h7.1Z"/>
    <path class="st9" d="M223.5,444.7c.9,0,1.6.2,2.3.5.7.3,1.3.7,1.8,1.2s.9,1.1,1.2,1.8c.3.7.5,1.5.5,2.3s-.2,1.6-.5,2.3-.7,1.3-1.2,1.8-1.1.9-1.8,1.2c-.7.3-1.5.5-2.3.5s-1.5-.2-2.2-.5-1.3-.7-1.8-1.2-.9-1.1-1.2-1.8c-.3-.7-.5-1.5-.5-2.3s.2-1.6.5-2.3.7-1.3,1.2-1.8,1.1-.9,1.8-1.2c.7-.4,1.4-.5,2.2-.5ZM220.1,468h7v54.5h-7v-54.5Z"/>
    <path class="st9" d="M291.8,516.4c-2.5,2.2-5.2,4-8.3,5.2-3,1.2-6.5,1.9-10.3,1.9s-6.9-.7-9.9-2-5.6-3.2-7.7-5.6-3.8-5.3-5-8.8c-1.2-3.4-1.7-7.3-1.7-11.6s.7-8.8,2-12.4c1.3-3.6,3.2-6.5,5.5-8.9s4.9-4.1,8-5.3c3-1.2,6.2-1.8,9.5-1.8s5.8.5,8.4,1.4c2.5.9,4.9,2.2,7,3.9l-1.9,5.6c-2-1.6-4.1-2.9-6.2-3.7s-4.4-1.2-6.7-1.2-4.6.4-6.9,1.3c-2.2.9-4.1,2.3-5.8,4.1-1.7,1.8-3,4.1-4,6.8s-1.5,5.9-1.5,9.6.4,6.4,1.3,9.2c.9,2.7,2.1,5.1,3.7,7s3.5,3.4,5.8,4.5c2.3,1,4.8,1.6,7.5,1.6s6.1-.5,8.5-1.6,4.8-2.7,7-4.9l1.7,5.7Z"/>
    <path class="st9" d="M350,516.4c-2.7,2.3-5.6,4-8.8,5.2-3.2,1.2-6.9,1.9-10.8,1.9s-7.3-.7-10.5-2c-3.1-1.3-5.8-3.2-8-5.6-2.2-2.4-3.9-5.3-5.1-8.8-1.2-3.4-1.8-7.3-1.8-11.6s.6-8.2,1.8-11.7c1.2-3.5,2.8-6.5,4.9-8.9,2.1-2.5,4.5-4.4,7.4-5.7,2.8-1.3,5.9-2,9.2-2s6,.6,8.5,1.7c2.6,1.2,4.8,2.8,6.6,5,1.8,2.1,3.3,4.7,4.3,7.7s1.5,6.4,1.5,10.1v1.7c0,.6-.1,1.1-.2,1.6h-36.8v1.4c0,3.2.5,6,1.4,8.6s2.2,4.8,3.8,6.6c1.6,1.8,3.6,3.2,5.9,4.2s4.9,1.5,7.8,1.5,6.5-.6,9.2-1.7c2.7-1.1,5.3-2.8,7.8-5l1.9,5.8ZM342.1,489.6c0-2.4-.4-4.6-1.1-6.6s-1.6-3.8-2.9-5.3c-1.2-1.5-2.7-2.7-4.5-3.5-1.7-.8-3.6-1.2-5.7-1.2s-3.9.4-5.6,1.1c-1.7.8-3.3,1.8-4.6,3.3-1.4,1.4-2.5,3.2-3.4,5.2-.9,2.1-1.6,4.4-1.9,7h29.7Z"/>
    <path class="st9" d="M397.9,474.9c2.7-2.4,5.8-4.3,9.2-5.6,3.4-1.4,7.2-2,11.4-2s5.8.4,8.2,1.2c2.5.8,4.6,2.1,6.4,3.8,1.8,1.7,3.1,3.9,4.1,6.6,1,2.7,1.5,5.9,1.5,9.6v22.8c0,4,1.5,6,4.6,6s2-.2,2.7-.6c.8-.4,1.4-.9,2-1.3l1,5.6c-.9.6-1.9,1.1-3,1.6-1.1.4-2.5.7-4.2.7-2.6,0-4.6-.6-6.2-1.9-1.5-1.3-2.6-3-3.1-5.2-1,1.1-2.2,2.1-3.4,3s-2.6,1.7-4,2.3c-1.5.7-3,1.2-4.6,1.5-1.6.4-3.4.5-5.3.5s-4.9-.3-7-1-3.9-1.7-5.4-2.9-2.6-2.7-3.4-4.5c-.8-1.7-1.2-3.6-1.2-5.7s.5-4.4,1.5-6.2c1-1.9,2.5-3.5,4.5-4.8s4.5-2.4,7.4-3.1c3-.7,6.5-1.1,10.4-1.1s3.4,0,5,.2c1.6.2,3.2.4,4.7.6v-5.8c0-2.9-.3-5.4-1-7.4s-1.6-3.7-2.8-4.9c-1.2-1.3-2.7-2.2-4.5-2.8-1.7-.6-3.7-.9-5.8-.9-3.4,0-6.6.6-9.5,1.9-2.9,1.3-5.6,3-8.2,5.3l-2-5.5ZM431.6,500.5c-1.6-.3-3.3-.5-4.8-.6-1.6,0-3.2-.2-4.8-.2-2.9,0-5.5.2-7.6.7-2.1.4-3.9,1.1-5.2,1.9-1.4.8-2.4,1.8-3,3-.7,1.1-1,2.4-1,3.8s.3,2.5.8,3.6,1.3,2,2.2,2.7c.9.8,2.1,1.3,3.5,1.7s3,.6,4.7.6c3.3,0,6.1-.7,8.6-2,2.5-1.4,4.7-3.2,6.5-5.5v-9.7h0Z"/>
    <path class="st9" d="M465,468h5.5l.5,6.8c2.3-2.4,4.9-4.3,7.8-5.7,2.9-1.3,6.1-2,9.5-2s5.4.4,7.8,1.3c2.5.9,4.6,2.2,6.4,4,1.8,1.8,3.3,4,4.4,6.8,1.1,2.7,1.6,5.9,1.6,9.6v33.7h-7v-32.7c0-2.9-.4-5.5-1.2-7.6s-1.8-3.9-3.2-5.2c-1.3-1.4-2.9-2.4-4.6-3-1.8-.6-3.6-.9-5.6-.9s-5.5.7-8.1,2c-2.5,1.3-4.8,3.2-6.8,5.6v41.8h-7v-54.5h0Z"/>
    <path class="st9" d="M570,522.5l-.5-6.8c-2.5,2.7-5.3,4.6-8.3,5.9-3,1.3-6.2,1.9-9.6,1.9s-6.5-.6-9.2-1.9c-2.7-1.3-5.1-3.1-7.1-5.3-2-2.3-3.5-5.1-4.5-8.3-1.1-3.2-1.6-6.8-1.6-10.7s.7-8.5,2.1-12.2c1.4-3.7,3.5-6.9,6.3-9.5,2.8-2.7,6.3-4.7,10.5-6.2s9-2.2,14.5-2.2,1.8,0,2.8,0c1,0,2,0,3.1.2v-25.5l7-1v81.5h-5.5ZM568.5,473.4c-1.1,0-2.3,0-3.4-.2-1.1,0-2.1,0-3.1,0-4.4,0-8.3.6-11.5,1.7-3.2,1.2-5.9,2.8-8,4.9-2.1,2.1-3.6,4.6-4.6,7.5s-1.5,6-1.5,9.5.4,5.9,1.1,8.5,1.9,4.7,3.3,6.5c1.5,1.8,3.2,3.2,5.3,4.2s4.4,1.5,7,1.5,5.9-.7,8.6-2.1c2.6-1.4,4.9-3.3,6.8-5.7v-36.2h0Z"/>
    <path class="st9" d="M622.5,473.9v-5.9h9.1v-14.5l7-.8v15.4h18.9v5.9h-18.9v33.2c0,3.4.8,5.9,2.4,7.6,1.6,1.7,3.9,2.6,6.9,2.6s3.9-.3,5.6-1c1.8-.7,3.5-1.7,5.1-3.1l1.4,5.6c-1.9,1.5-4,2.7-6.3,3.5-2.4.8-4.7,1.2-7.1,1.2-4.7,0-8.3-1.3-11-4s-3.9-6.5-3.9-11.7v-33.9h-9.2Z"/>
    <path class="st9" d="M715.8,516.4c-2.7,2.3-5.6,4-8.8,5.2s-6.9,1.9-10.8,1.9-7.3-.7-10.5-2c-3.1-1.3-5.8-3.2-8-5.6-2.2-2.4-3.9-5.3-5.1-8.8-1.2-3.4-1.8-7.3-1.8-11.6s.6-8.2,1.8-11.7,2.8-6.5,4.9-8.9c2.1-2.5,4.5-4.4,7.4-5.7,2.8-1.3,5.9-2,9.2-2s6,.6,8.5,1.7c2.6,1.2,4.8,2.8,6.6,5,1.8,2.1,3.3,4.7,4.3,7.7s1.5,6.4,1.5,10.1v1.7c0,.6,0,1.1-.2,1.6h-36.8v1.4c0,3.2.5,6,1.4,8.6s2.2,4.8,3.8,6.6,3.6,3.2,5.9,4.2c2.3,1,4.9,1.5,7.8,1.5s6.5-.6,9.2-1.7c2.7-1.1,5.3-2.8,7.8-5l1.9,5.8ZM707.9,489.6c0-2.4-.4-4.6-1.1-6.6-.7-2-1.6-3.8-2.9-5.3-1.2-1.5-2.7-2.7-4.5-3.5-1.7-.8-3.6-1.2-5.7-1.2s-3.9.4-5.6,1.1c-1.7.8-3.3,1.8-4.6,3.3-1.4,1.4-2.5,3.2-3.4,5.2-.9,2.1-1.6,4.4-1.9,7h29.7Z"/>
    <path class="st9" d="M776.9,516.4c-2.5,2.2-5.2,4-8.3,5.2-3,1.2-6.5,1.9-10.3,1.9s-6.9-.7-9.9-2-5.6-3.2-7.7-5.6-3.8-5.3-5-8.8c-1.2-3.4-1.7-7.3-1.7-11.6s.7-8.8,2-12.4c1.3-3.6,3.2-6.5,5.5-8.9s4.9-4.1,8-5.3c3-1.2,6.2-1.8,9.5-1.8s5.8.5,8.4,1.4c2.5.9,4.9,2.2,7,3.9l-1.9,5.6c-2-1.6-4.1-2.9-6.2-3.7-2.1-.8-4.4-1.2-6.7-1.2s-4.6.4-6.9,1.3c-2.2.9-4.1,2.3-5.8,4.1s-3,4.1-4,6.8-1.5,5.9-1.5,9.6.4,6.4,1.3,9.2c.9,2.7,2.1,5.1,3.7,7,1.6,1.9,3.5,3.4,5.8,4.5,2.3,1,4.8,1.6,7.5,1.6s6.1-.5,8.5-1.6,4.8-2.7,7-4.9l1.7,5.7Z"/>
    <path class="st9" d="M794.4,441.8l7-1v33.1c2.2-2.1,4.7-3.8,7.4-4.9,2.8-1.2,5.7-1.8,8.8-1.8s5.4.4,7.8,1.3c2.5.9,4.6,2.2,6.4,4,1.8,1.8,3.3,4,4.4,6.8,1.1,2.7,1.6,5.9,1.6,9.6v33.6h-7v-32.7c0-2.9-.4-5.5-1.2-7.6s-1.8-3.9-3.2-5.2c-1.3-1.4-2.9-2.4-4.6-3-1.8-.6-3.6-.9-5.6-.9s-5.5.7-8.1,2c-2.5,1.3-4.8,3.2-6.8,5.6v41.8h-7v-80.7h0Z"/>
    <path class="st9" d="M862.4,468h5.5l.5,6.8c2.3-2.4,4.9-4.3,7.8-5.7,2.9-1.3,6.1-2,9.5-2s5.4.4,7.8,1.3c2.5.9,4.6,2.2,6.4,4,1.8,1.8,3.3,4,4.4,6.8,1.1,2.7,1.6,5.9,1.6,9.6v33.7h-7v-32.7c0-2.9-.4-5.5-1.2-7.6s-1.8-3.9-3.2-5.2c-1.3-1.4-2.9-2.4-4.6-3-1.8-.6-3.6-.9-5.6-.9s-5.5.7-8.1,2c-2.5,1.3-4.8,3.2-6.8,5.6v41.8h-7v-54.5h0Z"/>
    <path class="st9" d="M953.3,467.1c3.5,0,6.8.6,10,1.9,3.2,1.2,5.9,3,8.3,5.4s4.3,5.3,5.7,8.8c1.4,3.5,2.1,7.4,2.1,11.8s-.7,8.6-2.1,12.1-3.3,6.5-5.8,8.9c-2.4,2.4-5.3,4.3-8.5,5.5s-6.6,1.9-10.2,1.9-6.8-.6-10-1.9c-3.2-1.3-6-3.1-8.4-5.4-2.4-2.4-4.3-5.3-5.7-8.7-1.4-3.5-2.1-7.4-2.1-11.9s.7-8.6,2.1-12.1c1.4-3.5,3.4-6.5,5.8-8.9,2.4-2.4,5.3-4.3,8.5-5.5,3.3-1.2,6.7-1.9,10.3-1.9ZM952.9,473.1c-2.5,0-4.9.5-7.1,1.5-2.3,1-4.3,2.4-6.1,4.3-1.8,1.9-3.2,4.2-4.2,6.9-1.1,2.7-1.6,5.8-1.6,9.3s.5,6.9,1.6,9.6c1.1,2.8,2.5,5.1,4.2,7,1.8,1.9,3.8,3.3,6.2,4.2,2.3.9,4.8,1.4,7.4,1.4s4.9-.5,7.1-1.5c2.3-1,4.3-2.4,6.1-4.3,1.8-1.9,3.2-4.2,4.2-6.9s1.6-5.8,1.6-9.2-.5-6.9-1.6-9.7c-1-2.8-2.4-5.1-4.2-7-1.8-1.9-3.8-3.3-6.2-4.2-2.4-.9-4.9-1.4-7.4-1.4Z"/>
    <path class="st9" d="M1007.7,509.5c0,2.6.5,4.6,1.6,5.9,1.1,1.3,2.6,2,4.6,2s2.2-.2,3.1-.5,1.8-.8,2.8-1.4l1.1,5.7c-1.3.7-2.6,1.3-4.1,1.6-1.5.4-3,.6-4.5.6s-3.4-.3-4.8-.8c-1.4-.6-2.7-1.4-3.7-2.5s-1.8-2.5-2.3-4.1-.8-3.6-.8-5.8v-68.5l7-1v68.8h0Z"/>
    <path class="st9" d="M1059.6,467.1c3.5,0,6.8.6,10,1.9,3.2,1.2,5.9,3,8.3,5.4s4.3,5.3,5.7,8.8c1.4,3.5,2.1,7.4,2.1,11.8s-.7,8.6-2.1,12.1-3.3,6.5-5.8,8.9c-2.4,2.4-5.3,4.3-8.5,5.5s-6.6,1.9-10.2,1.9-6.8-.6-10-1.9c-3.2-1.3-6-3.1-8.4-5.4-2.4-2.4-4.3-5.3-5.7-8.7-1.4-3.5-2.1-7.4-2.1-11.9s.7-8.6,2.1-12.1,3.4-6.5,5.8-8.9,5.3-4.3,8.5-5.5c3.3-1.2,6.7-1.9,10.3-1.9ZM1059.1,473.1c-2.5,0-4.9.5-7.1,1.5-2.3,1-4.3,2.4-6.1,4.3-1.8,1.9-3.2,4.2-4.2,6.9-1.1,2.7-1.6,5.8-1.6,9.3s.5,6.9,1.6,9.6c1.1,2.8,2.5,5.1,4.2,7,1.8,1.9,3.8,3.3,6.2,4.2,2.3.9,4.8,1.4,7.4,1.4s4.9-.5,7.1-1.5c2.3-1,4.3-2.4,6.1-4.3,1.8-1.9,3.2-4.2,4.2-6.9s1.6-5.8,1.6-9.2-.5-6.9-1.6-9.7c-1-2.8-2.4-5.1-4.2-7-1.8-1.9-3.8-3.3-6.2-4.2-2.3-.9-4.8-1.4-7.4-1.4Z"/>
    <path class="st9" d="M1140,473.9h-1.1c1.4,1.3,2.6,2.9,3.5,4.9.9,1.9,1.3,4.1,1.3,6.5s-.5,5.6-1.6,7.9c-1.1,2.3-2.6,4.3-4.4,5.9-1.8,1.6-4,2.8-6.4,3.7-2.5.8-5.1,1.3-7.8,1.3s-1.9,0-2.8-.2c-.9,0-1.8-.4-2.7-.8-1,1-1.7,2-2.1,3.1-.5,1.1-.7,2.2-.7,3.5s.2,1.9.6,2.8c.4.9.9,1.6,1.6,2.2.7.6,1.5,1.1,2.5,1.5s2.1.5,3.4.5h6.6c2.9,0,5.5.3,7.9,1,2.3.7,4.3,1.7,6,3,1.6,1.3,2.9,2.9,3.8,4.7s1.3,3.9,1.3,6.2-.6,5.3-1.7,7.5-2.8,4.1-4.9,5.6-4.7,2.7-7.8,3.6c-3,.8-6.5,1.3-10.3,1.3s-6.8-.4-9.6-1.2c-2.9-.8-5.3-1.9-7.3-3.3-2-1.4-3.6-3.2-4.7-5.2-1.1-2.1-1.6-4.4-1.6-7s.3-3.5.8-5.1c.6-1.6,1.4-3,2.4-4.3s2.3-2.4,3.8-3.3c1.5-.9,3.2-1.6,5-2.1-1.4-.9-2.4-2-3.2-3.4-.8-1.4-1.2-3-1.2-4.8s.3-3.4,1-4.8c.7-1.5,1.6-2.8,2.7-4-2.5-1.5-4.5-3.5-6.1-6-1.5-2.5-2.3-5.5-2.3-9.1s.5-5.6,1.6-8c1.1-2.3,2.5-4.3,4.4-5.9,1.9-1.6,4-2.8,6.5-3.6s5-1.2,7.8-1.2,2.3,0,3.4.2c1.1,0,2.2.4,3.3.7h18.3v5.9h-9.2v-.2ZM1121.5,522.4c-4.5,0-8,.9-10.3,2.7s-3.5,4.2-3.5,7.3.4,3.3,1.2,4.7c.8,1.4,1.9,2.6,3.4,3.5,1.5,1,3.2,1.7,5.3,2.2,2.1.5,4.4.8,7,.8s5-.3,7.1-.8,3.9-1.3,5.4-2.3,2.6-2.2,3.4-3.7c.8-1.4,1.2-3,1.2-4.8,0-3-1.1-5.3-3.4-7-2.2-1.7-5.4-2.6-9.4-2.6h-7.4ZM1123.5,472.8c-1.7,0-3.3.3-4.9.9-1.6.6-2.9,1.4-4.1,2.5s-2.2,2.4-2.9,3.9c-.7,1.5-1.1,3.3-1.1,5.3s.4,3.8,1.1,5.4c.7,1.6,1.7,2.9,2.9,4,1.2,1.1,2.6,1.9,4.2,2.5s3.3.9,5.1.9,3.3-.3,4.8-.9c1.6-.6,2.9-1.4,4.1-2.5s2.2-2.4,2.9-4c.7-1.5,1.1-3.3,1.1-5.2s-.4-3.8-1.1-5.4c-.7-1.6-1.7-3-2.9-4.1-1.2-1.1-2.6-2-4.2-2.6-1.6-.4-3.2-.7-5-.7Z"/>
    <path class="st9" d="M1206.8,468c-1.1,4.6-2.3,9.2-3.6,13.9-1.3,4.7-2.8,9.3-4.3,13.9-1.5,4.6-3.1,9-4.8,13.4-1.7,4.4-3.5,8.5-5.4,12.4-2,4.2-4.2,8-6.4,11.4s-4.6,6.3-7,8.6c-2.5,2.4-5,4.2-7.7,5.5s-5.5,1.9-8.4,1.9-2.7-.2-4-.5-2.4-.7-3.3-1.3l1-6c.9.6,1.9,1,2.9,1.3s2.1.4,3.3.4c2,0,4-.5,5.9-1.4s3.8-2.3,5.6-4c1.8-1.7,3.5-3.8,5.2-6.3,1.7-2.4,3.2-5.2,4.6-8.2-2.2-4.9-4.3-9.7-6.4-14.4-2-4.7-3.9-9.3-5.7-13.9-1.8-4.5-3.4-9-4.8-13.5-1.5-4.4-2.8-8.9-3.9-13.3h7.2c1,3.9,2.1,7.9,3.4,12,1.3,4,2.7,8.1,4.3,12.1,1.5,4,3.1,8,4.8,12,1.7,4,3.4,7.9,5.2,11.7,1.7-3.9,3.3-7.9,4.7-11.9,1.5-4,2.8-8,4.1-12,1.3-4,2.5-8,3.6-12s2.1-7.9,3-11.9h6.9Z"/>
  </g>
  <g>
    <path class="st2" d="M1463.8,316.3c-6.9,0-12.5,5.6-12.5,12.5v43.5c0,53.8-42.5,97.8-95.6,100.3-5-12.6-17.3-21.5-31.7-21.5s-34.1,15.3-34.1,34.1,15.3,34.1,34.1,34.1,26.8-9,31.8-21.7c66.9-2.6,120.6-57.8,120.6-125.3v-43.5c-.1-6.9-5.7-12.5-12.6-12.5ZM1323.9,499.6c-7.9,0-14.3-6.4-14.3-14.3s6.4-14.3,14.3-14.3,14.3,6.4,14.3,14.3c0,7.9-6.3,14.3-14.3,14.3Z"/>
    <path class="st1" d="M1633.4,488.7c-14.4,0-26.7,8.9-31.7,21.5-38-1.7-68.5-33.1-68.5-71.6v-161c0-6.9-5.6-12.5-12.5-12.5s-12.5,5.6-12.5,12.5v161c0,52.3,41.7,94.9,93.5,96.6,5,12.7,17.3,21.7,31.7,21.7s34.1-15.3,34.1-34.1-15.3-34.1-34.1-34.1ZM1633.4,537.2c-7.9,0-14.3-6.4-14.3-14.3s6.4-14.3,14.3-14.3,14.3,6.4,14.3,14.3c0,7.8-6.4,14.3-14.3,14.3Z"/>
    <path class="st4" d="M1419.3,295c-.8-6.9-7-11.8-13.9-11s-11.8,7-11,13.9c1.4,11.7,3.1,40.6-10.7,56.1-6.5,7.4-16,11-29,11.2-5.1-12.5-17.3-21.3-31.6-21.3s-34.1,15.3-34.1,34.1,15.3,34.1,34.1,34.1,26.9-9.1,31.8-21.9c20.2-.3,36.1-6.8,47.5-19.6,19.8-22.1,19.1-56.8,16.9-75.6ZM1323.1,392.4c-7.9,0-14.3-6.4-14.3-14.3s6.4-14.3,14.3-14.3,14.3,6.4,14.3,14.3c0,7.9-6.3,14.3-14.3,14.3Z"/>
    <path class="st6" d="M1718.6,402.5c-14.1,0-26.2,8.6-31.4,20.8-53.8-1.8-97-46.1-97-100.3s-5.6-12.5-12.5-12.5-12.5,5.6-12.5,12.5c0,67.8,54.1,123.2,121.4,125.4,4.8,13,17.3,22.4,32,22.4s34.1-15.3,34.1-34.1-15.3-34.2-34.1-34.2ZM1718.6,451c-7.9,0-14.3-6.4-14.3-14.3s6.4-14.3,14.3-14.3,14.3,6.4,14.3,14.3c0,7.8-6.4,14.3-14.3,14.3Z"/>
    <path class="st10" d="M1492.4-2.6c-68.3,0-124,55.6-124,124s7.8,69.8,15.4,112.1c4.4,24.8,8.6,48.1,10.6,64.5.7,6.4,6.2,11.1,12.4,11.1s1,0,1.5-.1c6.9-.8,11.8-7,11-13.9-2-17.1-6.3-40.9-10.8-66-7.1-39.3-15-83.9-15-107.7,0-54.5,44.4-98.9,98.9-98.9s98.9,44.4,98.9,98.9-6.4,53.7-12.7,86.7c-6,32-12.3,65.1-13.2,87.9-.2,5.1-.3,12.2-.3,17.3v9.7h0c.2,3.8,1.1,7.9,5.9,10.9,2,1.2,4.3,1.9,6.6,1.9s4.2-.5,6.1-1.6c4-2.2,6.4-6.5,6.5-11v-.7c0-2.9,0-17.5.2-25.4.9-20.9,6.9-53.1,12.8-84.3,6.7-35.7,13.1-69.4,13.1-91.4,0-68.4-55.6-124-123.9-124Z"/>
  </g>
</svg>