<svg width="158" height="50" viewBox="0 0 158 50" fill="none" xmlns="http://www.w3.org/2000/svg">
<path d="M63.2444 25.4822C59.2073 25.4822 55.9299 22.2335 55.9299 18.2318V2.18274C55.9299 1.20135 55.1276 0.414552 54.1461 0.414552C53.1645 0.414552 52.3622 1.20981 52.3622 2.18274V18.2318C52.3622 24.1794 57.2443 29.0271 63.2529 29.0271C64.243 29.0271 65.0367 28.2318 65.0367 27.2589C65.0367 26.286 64.2344 25.4907 63.2529 25.4907L63.2444 25.4822Z" fill="#FFFFFD"/>
<path d="M10.8907 7.44501C5.23196 7.44501 0.571846 11.7513 0.0512104 17.225C0.0170704 17.3519 0 17.4873 0 17.6311V33.6802C0 34.6616 0.80229 35.4484 1.78382 35.4484C2.76534 35.4484 3.56763 34.6531 3.56763 33.6802V26.2183C5.50508 27.9611 8.06558 29.0271 10.8821 29.0271C16.8822 29.0271 21.7728 24.1878 21.7728 18.2318C21.7728 12.2758 16.8908 7.43655 10.8821 7.43655L10.8907 7.44501ZM10.8907 25.4822C6.85361 25.4822 3.57617 22.2335 3.57617 18.2318C3.57617 14.2301 6.85361 10.9814 10.8907 10.9814C14.9277 10.9814 18.2052 14.2301 18.2052 18.2318C18.2052 22.2335 14.9277 25.4822 10.8907 25.4822Z" fill="#FFFFFD"/>
<path d="M35.8385 7.44501C29.8384 7.44501 24.9478 12.2843 24.9478 18.2403C24.9478 24.1963 29.8298 29.0355 35.8385 29.0355C41.8471 29.0355 46.7291 24.1963 46.7291 18.2403C46.7291 12.2843 41.8471 7.44501 35.8385 7.44501ZM35.8385 25.4822C31.8014 25.4822 28.524 22.2335 28.524 18.2318C28.524 14.2301 31.8014 10.9814 35.8385 10.9814C39.8755 10.9814 43.153 14.2301 43.153 18.2318C43.153 22.2335 39.8755 25.4822 35.8385 25.4822Z" fill="#FFFFFD"/>
<path d="M80.2546 7.44501C74.5959 7.44501 69.9358 11.7513 69.4152 17.225C69.381 17.3519 69.364 17.4873 69.364 17.6311V33.6802C69.364 34.6616 70.1663 35.4484 71.1478 35.4484C72.1293 35.4484 72.9316 34.6531 72.9316 33.6802V26.2183C74.869 27.9611 77.4296 29.0271 80.2461 29.0271C86.2462 29.0271 91.1368 24.1878 91.1368 18.2318C91.1368 12.2758 86.2547 7.43655 80.2461 7.43655L80.2546 7.44501ZM80.2546 25.4822C76.2176 25.4822 72.9401 22.2335 72.9401 18.2318C72.9401 14.2301 76.2176 10.9814 80.2546 10.9814C84.2917 10.9814 87.5691 14.2301 87.5691 18.2318C87.5691 22.2335 84.2917 25.4822 80.2546 25.4822Z" fill="#FFFFFD"/>
<path d="M105.194 7.44501C99.1938 7.44501 94.3032 12.2843 94.3032 18.2403C94.3032 24.1963 99.1853 29.0355 105.194 29.0355C111.203 29.0355 116.085 24.1963 116.085 18.2403C116.085 12.2843 111.203 7.44501 105.194 7.44501ZM105.194 25.4822C101.157 25.4822 97.8794 22.2335 97.8794 18.2318C97.8794 14.2301 101.157 10.9814 105.194 10.9814C109.231 10.9814 112.508 14.2301 112.508 18.2318C112.508 22.2335 109.231 25.4822 105.194 25.4822Z" fill="#FFFFFD"/>
<path d="M0.332866 46.0998C0.520636 46.2267 0.716941 46.3198 0.930316 46.3875C1.13516 46.4552 1.34853 46.4805 1.57044 46.4805C1.73261 46.4805 1.8777 46.4636 2.00573 46.4213C2.13375 46.379 2.24471 46.3283 2.33859 46.2606C2.43248 46.1929 2.50076 46.1083 2.55197 46.0068C2.60318 45.9052 2.62878 45.8037 2.62878 45.6768C2.62878 45.5245 2.59464 45.3976 2.52636 45.2961C2.45808 45.1946 2.3642 45.1015 2.24471 45.0254C2.12522 44.9492 1.99719 44.8816 1.84356 44.8139C1.69847 44.7547 1.54484 44.687 1.39121 44.6278C1.23758 44.5685 1.08395 44.5009 0.938851 44.4247C0.793756 44.3486 0.657196 44.264 0.537706 44.154C0.418216 44.0525 0.324331 43.9256 0.256051 43.7817C0.18777 43.6379 0.153631 43.4687 0.153631 43.2572C0.153631 43.0457 0.187771 42.8849 0.264586 42.7242C0.341401 42.5635 0.452355 42.4281 0.588915 42.3181C0.725475 42.2081 0.896175 42.1151 1.09248 42.0558C1.28879 41.9966 1.5107 41.9628 1.74968 41.9628C1.98866 41.9628 2.2191 41.9966 2.44101 42.0558C2.66292 42.1151 2.85923 42.2081 3.03846 42.3266L2.86776 42.8257C2.7056 42.7157 2.5349 42.6311 2.33859 42.5635C2.15082 42.5042 1.95452 42.4704 1.74968 42.4704C1.59605 42.4704 1.45949 42.4873 1.34 42.5296C1.22051 42.5635 1.11809 42.6142 1.03274 42.6819C0.947386 42.7496 0.88764 42.8257 0.844965 42.9103C0.80229 43.0034 0.776685 43.0964 0.776685 43.2064C0.776685 43.3503 0.810825 43.4772 0.879105 43.5787C0.947385 43.6802 1.04127 43.7648 1.16076 43.841C1.28025 43.9171 1.40828 43.9848 1.55337 44.044C1.69847 44.1032 1.8521 44.1624 2.01426 44.2301C2.16789 44.2893 2.32152 44.3655 2.47515 44.4332C2.62025 44.5093 2.75681 44.6024 2.86776 44.7039C2.98725 44.8054 3.08114 44.9323 3.14942 45.0846C3.2177 45.2284 3.25184 45.4061 3.25184 45.6176C3.25184 45.8291 3.20916 46.0152 3.13235 46.1844C3.047 46.3536 2.93604 46.4975 2.78241 46.6159C2.63732 46.7343 2.45808 46.8274 2.24471 46.8866C2.03133 46.9459 1.80942 46.9797 1.55337 46.9797C1.42535 46.9797 1.29732 46.9712 1.1693 46.9543C1.04127 46.9374 0.92178 46.912 0.80229 46.8782C0.6828 46.8443 0.571845 46.802 0.46089 46.7597C0.35847 46.709 0.25605 46.6497 0.1707 46.5905L0.32433 46.0829L0.332866 46.0998Z" fill="#FFFFFD"/>
<path d="M8.8508 46.3706C8.61182 46.5736 8.34723 46.7259 8.05704 46.8359C7.76685 46.9459 7.44252 47.0051 7.08405 47.0051C6.72558 47.0051 6.42686 46.9459 6.1452 46.8274C5.86355 46.709 5.62457 46.5482 5.41973 46.3283C5.22342 46.1083 5.06126 45.8545 4.95884 45.5415C4.84788 45.2369 4.79667 44.89 4.79667 44.5093C4.79667 44.1286 4.84788 43.7733 4.95884 43.4602C5.06126 43.1472 5.21489 42.8849 5.40266 42.665C5.59043 42.445 5.81234 42.2758 6.06839 42.1574C6.32444 42.0389 6.59756 41.9797 6.90482 41.9797C7.18647 41.9797 7.44252 42.0305 7.67297 42.132C7.90341 42.2335 8.09972 42.3858 8.27042 42.5719C8.43258 42.7665 8.56915 42.9949 8.6545 43.2657C8.74838 43.5364 8.79105 43.8325 8.79105 44.1709C8.79105 44.2217 8.79105 44.2809 8.79105 44.3232C8.79105 44.3739 8.79105 44.4247 8.77398 44.467H5.4624V44.5939C5.4624 44.8731 5.50508 45.1354 5.59043 45.3638C5.67578 45.5922 5.78673 45.7953 5.94036 45.956C6.08546 46.1168 6.26469 46.2437 6.47807 46.3367C6.68291 46.4298 6.92189 46.4721 7.18647 46.4721C7.49373 46.4721 7.77539 46.4213 8.01437 46.3198C8.26188 46.2183 8.49233 46.0745 8.71424 45.8714L8.88494 46.3706H8.8508ZM8.15093 43.9848C8.15093 43.7733 8.11679 43.5702 8.05704 43.3926C7.9973 43.2149 7.91195 43.0542 7.80099 42.9188C7.69004 42.7834 7.55348 42.6819 7.39985 42.6058C7.24622 42.5296 7.06698 42.4958 6.88775 42.4958C6.70851 42.4958 6.53781 42.5296 6.38418 42.5973C6.23055 42.665 6.08546 42.758 5.96597 42.8934C5.84648 43.0203 5.74406 43.1811 5.65871 43.3587C5.57336 43.5448 5.51361 43.7479 5.48801 43.9848H8.168H8.15093Z" fill="#FFFFFD"/>
<path d="M10.8309 42.0558H11.3259L11.3857 42.7411C11.4881 42.6058 11.5905 42.4873 11.693 42.3858C11.7954 42.2843 11.8978 42.2081 11.9917 42.1489C12.0941 42.0897 12.1965 42.0474 12.2904 42.0135C12.3928 41.9882 12.4952 41.9712 12.5891 41.9712C12.683 41.9712 12.7684 41.9797 12.8537 42.0051C12.9391 42.022 13.0159 42.0558 13.0842 42.0981L12.9988 42.665C12.9305 42.6227 12.8537 42.5888 12.7769 42.5719C12.7001 42.5465 12.6233 42.5381 12.5465 42.5381C12.4696 42.5381 12.3928 42.5465 12.3075 42.5719C12.2221 42.5973 12.1368 42.6396 12.0514 42.6988C11.9575 42.758 11.8637 42.8426 11.7698 42.9442C11.6673 43.0457 11.5649 43.1811 11.4625 43.3503V46.9289H10.8309V42.0558Z" fill="#FFFFFD"/>
<path d="M18.1796 42.0558C17.9747 42.868 17.7187 43.6802 17.4285 44.4924C17.1298 45.3046 16.7969 46.1168 16.4213 46.9205H15.6959C15.3203 46.1168 14.9789 45.313 14.6887 44.4924C14.39 43.6802 14.1425 42.868 13.9377 42.0558H14.5863C14.6717 42.4112 14.7656 42.7665 14.8765 43.1303C14.9875 43.4941 15.0984 43.8579 15.2264 44.2132C15.3545 44.577 15.491 44.9323 15.6361 45.2877C15.7812 45.643 15.9263 45.9899 16.0799 46.3283C16.225 45.9899 16.3701 45.643 16.5152 45.2877C16.6603 44.9323 16.7884 44.577 16.9164 44.2132C17.0444 43.8494 17.1554 43.4856 17.2663 43.1303C17.3773 42.7665 17.4712 42.4112 17.5565 42.0558H18.1881H18.1796Z" fill="#FFFFFD"/>
<path d="M20.1597 39.9662C20.2365 39.9662 20.3048 39.9831 20.3645 40.0085C20.4243 40.0338 20.484 40.0761 20.5267 40.1184C20.5694 40.1607 20.612 40.22 20.6376 40.2792C20.6632 40.3384 20.6803 40.4061 20.6803 40.4822C20.6803 40.5584 20.6632 40.6261 20.6376 40.6853C20.612 40.7445 20.5694 40.8037 20.5267 40.846C20.484 40.8883 20.4243 40.9306 20.3645 40.956C20.3048 40.9814 20.2365 40.9983 20.1597 40.9983C20.0914 40.9983 20.0231 40.9814 19.9548 40.956C19.8951 40.9306 19.8353 40.8968 19.7927 40.846C19.75 40.8037 19.7073 40.7445 19.6817 40.6853C19.6561 40.6261 19.639 40.5584 19.639 40.4822C19.639 40.4061 19.6561 40.3384 19.6817 40.2792C19.7073 40.22 19.75 40.1607 19.7927 40.1184C19.8353 40.0761 19.8951 40.0338 19.9548 40.0085C20.0146 39.9831 20.0829 39.9662 20.1597 39.9662ZM19.8524 42.0558H20.484V46.9205H19.8524V42.0558Z" fill="#FFFFFD"/>
<path d="M26.3134 46.3706C26.0915 46.5736 25.844 46.7259 25.5709 46.8359C25.2977 46.9459 24.9905 47.0051 24.6406 47.0051C24.3162 47.0051 24.0175 46.9459 23.7444 46.8274C23.4713 46.709 23.2408 46.5482 23.053 46.3283C22.8653 46.1083 22.7116 45.8545 22.6092 45.5415C22.5068 45.2369 22.4556 44.89 22.4556 44.5008C22.4556 44.0778 22.5153 43.7141 22.6348 43.3926C22.7543 43.0711 22.9165 42.8088 23.1299 42.5973C23.3347 42.3858 23.5737 42.225 23.8468 42.1235C24.1199 42.022 24.4016 41.9628 24.7003 41.9628C24.9734 41.9628 25.2295 42.0051 25.4599 42.0812C25.6904 42.1658 25.9037 42.2843 26.0915 42.4366L25.9208 42.9442C25.7416 42.8003 25.5538 42.6904 25.3575 42.6142C25.1612 42.5381 24.9649 42.5042 24.7515 42.5042C24.5381 42.5042 24.3333 42.5465 24.137 42.6227C23.9407 42.6988 23.7614 42.8257 23.6164 42.9865C23.4627 43.1472 23.3432 43.3503 23.2493 43.5956C23.1555 43.841 23.1128 44.1286 23.1128 44.4501C23.1128 44.7547 23.1555 45.0254 23.2323 45.2707C23.3091 45.5161 23.42 45.7276 23.5651 45.8968C23.7102 46.066 23.8809 46.2014 24.0858 46.2944C24.2906 46.3875 24.5125 46.4298 24.76 46.4298C25.0502 46.4298 25.3148 46.379 25.5282 46.286C25.7501 46.1844 25.9549 46.0406 26.1598 45.8545L26.339 46.3621L26.3134 46.3706Z" fill="#FFFFFD"/>
<path d="M31.5624 46.3706C31.3235 46.5736 31.0589 46.7259 30.7687 46.8359C30.4785 46.9459 30.1542 47.0051 29.7957 47.0051C29.4372 47.0051 29.1385 46.9459 28.8568 46.8274C28.5752 46.709 28.3362 46.5482 28.1314 46.3283C27.9351 46.1083 27.7729 45.8545 27.6705 45.5415C27.5595 45.2369 27.5083 44.89 27.5083 44.5093C27.5083 44.1286 27.5595 43.7733 27.6705 43.4602C27.7729 43.1472 27.9265 42.8849 28.1143 42.665C28.3021 42.445 28.524 42.2758 28.78 42.1574C29.0361 42.0389 29.3092 41.9797 29.6165 41.9797C29.8981 41.9797 30.1542 42.0305 30.3846 42.132C30.6151 42.2335 30.8114 42.3858 30.9821 42.5719C31.1442 42.7665 31.2808 42.9949 31.3661 43.2657C31.46 43.5364 31.5027 43.8325 31.5027 44.1709C31.5027 44.2217 31.5027 44.2809 31.5027 44.3232C31.5027 44.3739 31.5027 44.4247 31.4856 44.467H28.174V44.5939C28.174 44.8731 28.2167 45.1354 28.3021 45.3638C28.3874 45.5922 28.4984 45.7953 28.652 45.956C28.7971 46.1168 28.9763 46.2437 29.1897 46.3367C29.3946 46.4298 29.6335 46.4721 29.8981 46.4721C30.2054 46.4721 30.487 46.4213 30.726 46.3198C30.9735 46.2183 31.204 46.0745 31.4259 45.8714L31.5966 46.3706H31.5624ZM30.854 43.9848C30.854 43.7733 30.8199 43.5702 30.7602 43.3926C30.7004 43.2149 30.6151 43.0542 30.5041 42.9188C30.3932 42.7834 30.2566 42.6819 30.103 42.6058C29.9493 42.5296 29.7701 42.4958 29.5909 42.4958C29.4116 42.4958 29.2409 42.5296 29.0873 42.5973C28.9337 42.665 28.7886 42.758 28.6691 42.8934C28.5496 43.0203 28.4472 43.1811 28.3618 43.3587C28.2765 43.5448 28.2167 43.7479 28.1911 43.9848H30.8711H30.854Z" fill="#FFFFFD"/>
<path d="M35.8812 42.665C36.1287 42.4535 36.4018 42.2843 36.709 42.1574C37.0163 42.0389 37.3577 41.9712 37.7332 41.9712C38.0064 41.9712 38.2539 42.0051 38.4758 42.0812C38.6977 42.1574 38.894 42.2673 39.0476 42.4196C39.2098 42.5719 39.3293 42.7665 39.4146 43.0119C39.5 43.2487 39.5427 43.5364 39.5427 43.8663V45.9053C39.5427 46.2606 39.6792 46.4467 39.9609 46.4467C40.0548 46.4467 40.1401 46.4298 40.2084 46.3875C40.2767 46.3536 40.3364 46.3113 40.3876 46.269L40.473 46.7682C40.3962 46.819 40.3023 46.8697 40.1999 46.912C40.0974 46.9543 39.9694 46.9712 39.8243 46.9712C39.5939 46.9712 39.4061 46.912 39.2696 46.802C39.133 46.6921 39.0391 46.5313 38.9964 46.3367C38.9025 46.4383 38.8001 46.5229 38.6892 46.6075C38.5782 46.6836 38.4587 46.7597 38.3307 46.819C38.2027 46.8782 38.0576 46.9205 37.9125 46.9543C37.7674 46.9882 37.6052 47.0051 37.4345 47.0051C37.2041 47.0051 36.9907 46.9712 36.8029 46.912C36.6152 46.8528 36.453 46.7597 36.3164 46.6497C36.1799 46.5398 36.0775 46.4044 36.0092 46.2521C35.9324 46.0998 35.8982 45.9306 35.8982 45.7445C35.8982 45.5415 35.9409 45.3553 36.0348 45.1861C36.1287 45.0169 36.2567 44.8731 36.4359 44.7547C36.6152 44.6362 36.8371 44.5432 37.1102 44.4755C37.3833 44.4078 37.6906 44.3739 38.049 44.3739C38.2027 44.3739 38.3563 44.374 38.4929 44.3993C38.638 44.4163 38.7745 44.4332 38.9196 44.4586V43.9425C38.9196 43.6802 38.8855 43.4602 38.8343 43.2826C38.7745 43.1049 38.6892 42.9526 38.5782 42.8426C38.4673 42.7327 38.3307 42.6481 38.1771 42.5973C38.0234 42.5465 37.8442 42.5212 37.6479 42.5212C37.3406 42.5212 37.0504 42.5804 36.7944 42.6904C36.5298 42.8088 36.2908 42.9611 36.0604 43.1641L35.8897 42.6734L35.8812 42.665ZM38.9196 44.9492C38.7745 44.9239 38.6294 44.9069 38.4843 44.89C38.3392 44.8816 38.2027 44.8731 38.049 44.8731C37.7845 44.8731 37.554 44.89 37.3662 44.9323C37.1785 44.9746 37.0163 45.0254 36.8968 45.1015C36.7773 45.1777 36.6834 45.2623 36.6237 45.3638C36.564 45.4653 36.5383 45.5838 36.5383 45.7022C36.5383 45.8206 36.564 45.9306 36.6152 46.0237C36.6664 46.1168 36.7347 46.2014 36.82 46.269C36.9054 46.3367 37.0078 46.3875 37.1358 46.4213C37.2638 46.4552 37.4004 46.4721 37.5625 46.4721C37.8527 46.4721 38.1173 46.4129 38.3392 46.286C38.5611 46.1675 38.7575 45.9983 38.9282 45.7953V44.9323L38.9196 44.9492Z" fill="#FFFFFD"/>
<path d="M41.9239 42.0558H42.419L42.4702 42.665C42.675 42.445 42.9055 42.2758 43.1701 42.1574C43.4346 42.0389 43.7163 41.9797 44.0236 41.9797C44.2711 41.9797 44.51 42.022 44.732 42.0981C44.9539 42.1743 45.1502 42.2927 45.3123 42.4535C45.4745 42.6142 45.6111 42.8173 45.7049 43.0626C45.7988 43.308 45.85 43.5956 45.85 43.9256V46.9374H45.2185V44.0102C45.2185 43.7479 45.1843 43.5195 45.116 43.3333C45.0477 43.1472 44.9539 42.9865 44.8344 42.868C44.7149 42.7496 44.5698 42.6565 44.4162 42.5973C44.254 42.5381 44.0918 42.5127 43.9126 42.5127C43.6565 42.5127 43.4176 42.5719 43.1871 42.6904C42.9567 42.8088 42.7518 42.978 42.5726 43.1895V46.9289H41.941V42.0643L41.9239 42.0558Z" fill="#FFFFFD"/>
<path d="M51.3893 46.9205L51.3466 46.3113C51.1247 46.5482 50.8686 46.7259 50.604 46.8359C50.3309 46.9459 50.0493 47.0051 49.742 47.0051C49.4347 47.0051 49.1616 46.9459 48.9141 46.8359C48.6666 46.7259 48.4532 46.5652 48.274 46.3621C48.0947 46.1591 47.9582 45.9137 47.8643 45.6261C47.7704 45.3384 47.7192 45.0169 47.7192 44.6701C47.7192 44.2724 47.7789 43.9086 47.907 43.5787C48.035 43.2487 48.2228 42.9611 48.4703 42.7242C48.7263 42.4873 49.0336 42.3012 49.4091 42.1743C49.7847 42.0474 50.22 41.9797 50.7235 41.9797C50.8003 41.9797 50.8857 41.9797 50.9796 41.9797C51.0735 41.9797 51.1588 41.9797 51.2527 41.9966V39.7124L51.8843 39.6193V46.9205H51.3893ZM51.2527 42.5296C51.1503 42.5296 51.0479 42.5212 50.9454 42.5127C50.843 42.5127 50.7491 42.5127 50.6723 42.5127C50.2712 42.5127 49.9298 42.5635 49.6396 42.665C49.3494 42.7665 49.1104 42.9188 48.9226 43.1049C48.7349 43.291 48.5983 43.511 48.5044 43.7733C48.4191 44.0271 48.3679 44.3147 48.3679 44.6193C48.3679 44.8985 48.402 45.1523 48.4703 45.3723C48.5386 45.5922 48.641 45.7953 48.769 45.956C48.897 46.1168 49.0592 46.2437 49.247 46.3367C49.4347 46.4213 49.6396 46.4721 49.87 46.4721C50.1517 46.4721 50.4077 46.4129 50.6467 46.286C50.8857 46.1591 51.0905 45.9899 51.2612 45.7783V42.5381L51.2527 42.5296Z" fill="#FFFFFD"/>
<path d="M56.1176 42.5719V42.0474H56.937V40.7445L57.5686 40.6684V42.0389H59.2671V42.5635H57.5686V45.533C57.5686 45.8376 57.6369 46.0575 57.782 46.2183C57.9271 46.3706 58.1319 46.4467 58.405 46.4467C58.5843 46.4467 58.755 46.4129 58.9171 46.3536C59.0793 46.2944 59.2329 46.2014 59.3695 46.0745L59.4975 46.5821C59.3268 46.7174 59.139 46.819 58.9257 46.8951C58.7123 46.9628 58.4989 46.9966 58.2855 46.9966C57.8588 46.9966 57.5345 46.8782 57.2955 46.6413C57.0565 46.4044 56.9455 46.0575 56.9455 45.6007V42.5719H56.1176Z" fill="#FFFFFD"/>
<path d="M64.5332 46.3706C64.2942 46.5736 64.0296 46.7259 63.7394 46.8359C63.4492 46.9459 63.1249 47.0051 62.7664 47.0051C62.408 47.0051 62.1092 46.9459 61.8276 46.8274C61.5459 46.709 61.3069 46.5482 61.1021 46.3283C60.9058 46.1083 60.7436 45.8545 60.6412 45.5415C60.5303 45.2369 60.479 44.89 60.479 44.5093C60.479 44.1286 60.5303 43.7733 60.6412 43.4602C60.7436 43.1472 60.8973 42.8849 61.085 42.665C61.2728 42.445 61.4947 42.2758 61.7508 42.1574C62.0068 42.0389 62.2799 41.9797 62.5872 41.9797C62.8688 41.9797 63.1249 42.0305 63.3553 42.132C63.5858 42.2335 63.7821 42.3858 63.9528 42.5719C64.115 42.7665 64.2515 42.9949 64.3369 43.2657C64.4307 43.5364 64.4734 43.8325 64.4734 44.1709C64.4734 44.2217 64.4734 44.2809 64.4734 44.3232C64.4734 44.3739 64.4734 44.4247 64.4564 44.467H61.1448V44.5939C61.1448 44.8731 61.1874 45.1354 61.2728 45.3638C61.3581 45.5922 61.4691 45.7953 61.6227 45.956C61.7678 46.1168 61.9471 46.2437 62.1604 46.3367C62.3653 46.4298 62.6043 46.4721 62.8688 46.4721C63.1761 46.4721 63.4578 46.4213 63.6967 46.3198C63.9442 46.2183 64.1747 46.0745 64.3966 45.8714L64.5673 46.3706H64.5332ZM63.8248 43.9848C63.8248 43.7733 63.7906 43.5702 63.7309 43.3926C63.6711 43.2149 63.5858 43.0542 63.4748 42.9188C63.3639 42.7834 63.2273 42.6819 63.0737 42.6058C62.92 42.5296 62.7408 42.4958 62.5616 42.4958C62.3823 42.4958 62.2116 42.5296 62.058 42.5973C61.9044 42.665 61.7593 42.758 61.6398 42.8934C61.5203 43.0203 61.4179 43.1811 61.3325 43.3587C61.2472 43.5448 61.1874 43.7479 61.1618 43.9848H63.8418H63.8248Z" fill="#FFFFFD"/>
<path d="M70.0468 46.3706C69.8249 46.5736 69.5774 46.7259 69.3042 46.8359C69.0311 46.9459 68.7239 47.0051 68.3739 47.0051C68.0496 47.0051 67.7509 46.9459 67.4777 46.8274C67.2046 46.709 66.9742 46.5482 66.7864 46.3283C66.5986 46.1083 66.445 45.8545 66.3426 45.5415C66.2402 45.2369 66.189 44.89 66.189 44.5008C66.189 44.0778 66.2487 43.7141 66.3682 43.3926C66.4877 43.0711 66.6498 42.8088 66.8632 42.5973C67.0681 42.3858 67.307 42.225 67.5802 42.1235C67.8533 42.022 68.1349 41.9628 68.4337 41.9628C68.7068 41.9628 68.9628 42.0051 69.1933 42.0812C69.4237 42.1658 69.6371 42.2843 69.8249 42.4366L69.6542 42.9442C69.4749 42.8003 69.2872 42.6904 69.0909 42.6142C68.8946 42.5381 68.6982 42.5042 68.4849 42.5042C68.2715 42.5042 68.0667 42.5465 67.8704 42.6227C67.674 42.6988 67.4948 42.8257 67.3497 42.9865C67.1961 43.1472 67.0766 43.3503 66.9827 43.5956C66.8888 43.841 66.8462 44.1286 66.8462 44.4501C66.8462 44.7547 66.8888 45.0254 66.9656 45.2707C67.0425 45.5161 67.1534 45.7276 67.2985 45.8968C67.4436 46.066 67.6143 46.2014 67.8191 46.2944C68.024 46.3875 68.2459 46.4298 68.4934 46.4298C68.7836 46.4298 69.0482 46.379 69.2616 46.286C69.4835 46.1844 69.6883 46.0406 69.8931 45.8545L70.0724 46.3621L70.0468 46.3706Z" fill="#FFFFFD"/>
<path d="M71.6257 39.7124L72.2573 39.6193V42.5719C72.4536 42.3858 72.6756 42.2335 72.9231 42.132C73.1706 42.0305 73.4352 41.9712 73.7168 41.9712C73.9643 41.9712 74.2033 42.0135 74.4252 42.0897C74.6471 42.1658 74.8434 42.2843 75.0056 42.445C75.1678 42.6058 75.3043 42.8088 75.3982 43.0541C75.4921 43.2995 75.5433 43.5871 75.5433 43.9171V46.9289H74.9117V44.0017C74.9117 43.7394 74.8776 43.511 74.8093 43.3249C74.741 43.1388 74.6471 42.978 74.5277 42.8596C74.4082 42.7411 74.2631 42.6481 74.1094 42.5888C73.9473 42.5296 73.7851 42.5042 73.6059 42.5042C73.3498 42.5042 73.1108 42.5635 72.8804 42.6819C72.6499 42.8003 72.4451 42.9695 72.2659 43.1811V46.9205H71.6343V39.7124H71.6257Z" fill="#FFFFFD"/>
<path d="M77.7454 42.0558H78.2404L78.2916 42.665C78.4964 42.445 78.7269 42.2758 78.9915 42.1574C79.256 42.0389 79.5377 41.9797 79.845 41.9797C80.0925 41.9797 80.3315 42.022 80.5534 42.0981C80.7753 42.1743 80.9716 42.2927 81.1338 42.4535C81.2959 42.6142 81.4325 42.8173 81.5264 43.0626C81.6202 43.308 81.6715 43.5956 81.6715 43.9256V46.9374H81.0399V44.0102C81.0399 43.7479 81.0057 43.5195 80.9374 43.3333C80.8692 43.1472 80.7753 42.9865 80.6558 42.868C80.5363 42.7496 80.3912 42.6565 80.2376 42.5973C80.0754 42.5381 79.9132 42.5127 79.734 42.5127C79.478 42.5127 79.239 42.5719 79.0085 42.6904C78.7781 42.8088 78.5732 42.978 78.394 43.1895V46.9289H77.7624V42.0643L77.7454 42.0558Z" fill="#FFFFFD"/>
<path d="M85.9389 41.9712C86.2547 41.9712 86.5535 42.0305 86.8351 42.1404C87.1168 42.2504 87.3728 42.4112 87.5862 42.6227C87.7996 42.8342 87.9703 43.0965 88.0983 43.4095C88.2263 43.7225 88.2861 44.0694 88.2861 44.467C88.2861 44.8646 88.2263 45.2369 88.0983 45.5499C87.9703 45.8629 87.7996 46.1337 87.5777 46.3452C87.3558 46.5651 87.0997 46.7259 86.8095 46.8359C86.5193 46.9459 86.2121 47.0051 85.8877 47.0051C85.5634 47.0051 85.2732 46.9459 84.9916 46.8359C84.7099 46.7259 84.4539 46.5651 84.2405 46.3536C84.0271 46.1421 83.8479 45.8799 83.7284 45.5753C83.6004 45.2623 83.5406 44.9154 83.5406 44.5178C83.5406 44.1201 83.6089 43.7479 83.7369 43.4349C83.8649 43.1218 84.0442 42.8596 84.2576 42.6396C84.4709 42.4196 84.7355 42.2589 85.0257 42.1489C85.3159 42.0389 85.6232 41.9797 85.9475 41.9797L85.9389 41.9712ZM85.8963 42.5042C85.6744 42.5042 85.461 42.5465 85.2561 42.6311C85.0513 42.7157 84.8635 42.8426 84.7099 43.0119C84.5477 43.1811 84.4283 43.3841 84.3258 43.6294C84.2319 43.8748 84.1807 44.1455 84.1807 44.4586C84.1807 44.7885 84.2319 45.0761 84.3258 45.3215C84.4197 45.5668 84.5477 45.7783 84.7099 45.9475C84.8721 46.1168 85.0513 46.2437 85.2647 46.3283C85.4781 46.4129 85.7 46.4552 85.9304 46.4552C86.1609 46.4552 86.3657 46.4129 86.5705 46.3198C86.7754 46.2352 86.9632 46.1083 87.1168 45.9391C87.2789 45.7699 87.3984 45.5668 87.4923 45.3215C87.5862 45.0761 87.6289 44.8054 87.6289 44.4924C87.6289 44.1624 87.5862 43.8748 87.4923 43.6294C87.3984 43.3841 87.2704 43.1726 87.1082 43.0034C86.9461 42.8342 86.7668 42.7073 86.5535 42.6227C86.3401 42.5381 86.1182 42.4958 85.8877 42.4958L85.8963 42.5042Z" fill="#FFFFFD"/>
<path d="M90.8466 45.753C90.8466 45.9899 90.8978 46.1591 90.9917 46.2775C91.0941 46.3959 91.2307 46.4552 91.4099 46.4552C91.5123 46.4552 91.6062 46.4382 91.683 46.4129C91.7598 46.3875 91.8452 46.3452 91.9391 46.2944L92.0329 46.802C91.922 46.8697 91.794 46.912 91.6659 46.9459C91.5294 46.9797 91.3928 46.9966 91.2563 46.9966C91.0941 46.9966 90.9575 46.9712 90.821 46.9205C90.693 46.8697 90.582 46.7936 90.4881 46.7005C90.3942 46.599 90.3259 46.4805 90.2833 46.3367C90.2321 46.1929 90.2065 46.0152 90.2065 45.8206V39.7039L90.8381 39.6108V45.7445L90.8466 45.753Z" fill="#FFFFFD"/>
<path d="M95.5152 41.9712C95.831 41.9712 96.1297 42.0305 96.4114 42.1404C96.6931 42.2504 96.9491 42.4112 97.1625 42.6227C97.3759 42.8342 97.5466 43.0965 97.6746 43.4095C97.8026 43.7225 97.8624 44.0694 97.8624 44.467C97.8624 44.8646 97.8026 45.2369 97.6746 45.5499C97.5466 45.8629 97.3759 46.1337 97.1539 46.3452C96.932 46.5651 96.676 46.7259 96.3858 46.8359C96.0956 46.9459 95.7883 47.0051 95.464 47.0051C95.1397 47.0051 94.8495 46.9459 94.5678 46.8359C94.2862 46.7259 94.0301 46.5651 93.8168 46.3536C93.6034 46.1421 93.4241 45.8799 93.3047 45.5753C93.1766 45.2623 93.1169 44.9154 93.1169 44.5178C93.1169 44.1201 93.1852 43.7479 93.3132 43.4349C93.4412 43.1218 93.6205 42.8596 93.8338 42.6396C94.0472 42.4196 94.3118 42.2589 94.602 42.1489C94.8922 42.0389 95.1994 41.9797 95.5238 41.9797L95.5152 41.9712ZM95.4811 42.5042C95.2592 42.5042 95.0458 42.5465 94.841 42.6311C94.6361 42.7157 94.4483 42.8426 94.2947 43.0119C94.1326 43.1811 94.0131 43.3841 93.9106 43.6294C93.8168 43.8748 93.7655 44.1455 93.7655 44.4586C93.7655 44.7885 93.8168 45.0761 93.9106 45.3215C94.0045 45.5668 94.1326 45.7783 94.2947 45.9475C94.4569 46.1168 94.6361 46.2437 94.8495 46.3283C95.0629 46.4129 95.2848 46.4552 95.5152 46.4552C95.7457 46.4552 95.9505 46.4129 96.1554 46.3198C96.3602 46.2352 96.548 46.1083 96.7016 45.9391C96.8638 45.7699 96.9832 45.5668 97.0771 45.3215C97.171 45.0761 97.2137 44.8054 97.2137 44.4924C97.2137 44.1624 97.171 43.8748 97.0771 43.6294C96.9832 43.3841 96.8552 43.1726 96.6931 43.0034C96.5309 42.8342 96.3517 42.7073 96.1383 42.6227C95.9249 42.5381 95.703 42.4958 95.4725 42.4958L95.4811 42.5042Z" fill="#FFFFFD"/>
<path d="M102.77 42.5719H102.668C102.796 42.6904 102.898 42.8342 102.983 43.0034C103.06 43.1726 103.103 43.3672 103.103 43.5871C103.103 43.8494 103.052 44.0863 102.958 44.2978C102.855 44.5009 102.727 44.6785 102.565 44.8223C102.403 44.9662 102.207 45.0761 101.985 45.1523C101.763 45.2284 101.532 45.2623 101.276 45.2623C101.191 45.2623 101.106 45.2623 101.02 45.2453C100.935 45.2284 100.858 45.2115 100.781 45.1777C100.696 45.2623 100.628 45.3553 100.585 45.4484C100.542 45.5415 100.525 45.6514 100.525 45.7614C100.525 45.8545 100.542 45.9306 100.576 46.0152C100.611 46.0914 100.662 46.1591 100.722 46.2183C100.781 46.2775 100.858 46.3198 100.952 46.3536C101.037 46.3875 101.14 46.4044 101.251 46.4044H101.848C102.113 46.4044 102.343 46.4382 102.557 46.4975C102.77 46.5567 102.949 46.6497 103.094 46.7682C103.239 46.8866 103.359 47.022 103.436 47.1912C103.513 47.3519 103.555 47.5381 103.555 47.7411C103.555 47.9949 103.504 48.2149 103.402 48.4095C103.299 48.6041 103.154 48.7733 102.958 48.9086C102.761 49.044 102.531 49.154 102.258 49.2301C101.985 49.3063 101.677 49.3401 101.336 49.3401C101.02 49.3401 100.73 49.3063 100.466 49.2386C100.209 49.1709 99.9876 49.0694 99.8083 48.9425C99.6291 48.8156 99.484 48.6548 99.3901 48.4772C99.2877 48.291 99.245 48.088 99.245 47.8596C99.245 47.6988 99.2706 47.5465 99.3218 47.4027C99.3731 47.2589 99.4413 47.132 99.5352 47.022C99.6291 46.912 99.7401 46.8105 99.8766 46.7259C100.013 46.6413 100.158 46.5821 100.329 46.5313C100.209 46.4552 100.107 46.3536 100.039 46.2267C99.9705 46.0998 99.9364 45.956 99.9364 45.7953C99.9364 45.6345 99.962 45.4907 100.022 45.3638C100.081 45.2284 100.167 45.11 100.269 45C100.047 44.8646 99.8595 44.687 99.723 44.4585C99.5864 44.2301 99.5181 43.9594 99.5181 43.6464C99.5181 43.3841 99.5694 43.1472 99.6632 42.9357C99.7571 42.7242 99.8937 42.555 100.064 42.4112C100.235 42.2673 100.423 42.1574 100.645 42.0897C100.867 42.0135 101.097 41.9797 101.345 41.9797C101.447 41.9797 101.549 41.9797 101.652 41.9966C101.754 42.0135 101.848 42.0305 101.951 42.0558H103.598V42.5804H102.796L102.77 42.5719ZM101.106 46.912C100.696 46.912 100.389 46.9882 100.175 47.1489C99.962 47.3097 99.8595 47.5296 99.8595 47.8003C99.8595 47.9611 99.8937 48.0964 99.962 48.2234C100.03 48.3503 100.133 48.4518 100.261 48.5364C100.389 48.621 100.551 48.6887 100.739 48.7394C100.926 48.7817 101.14 48.8071 101.37 48.8071C101.601 48.8071 101.823 48.7817 102.01 48.731C102.198 48.6802 102.36 48.6125 102.497 48.5195C102.633 48.4264 102.736 48.3164 102.804 48.1895C102.872 48.0626 102.907 47.9188 102.907 47.758C102.907 47.4958 102.804 47.2843 102.608 47.132C102.403 46.9797 102.121 46.9036 101.754 46.9036H101.089L101.106 46.912ZM101.285 42.4789C101.131 42.4789 100.986 42.5042 100.85 42.555C100.713 42.6058 100.585 42.6819 100.474 42.7834C100.363 42.8849 100.278 42.9949 100.218 43.1387C100.15 43.2741 100.124 43.4349 100.124 43.6125C100.124 43.7902 100.158 43.9509 100.218 44.0948C100.286 44.2386 100.372 44.357 100.483 44.4585C100.594 44.5601 100.722 44.6278 100.867 44.687C101.012 44.7377 101.165 44.7631 101.319 44.7631C101.464 44.7631 101.609 44.7377 101.754 44.687C101.891 44.6362 102.019 44.5601 102.13 44.467C102.241 44.3655 102.326 44.2555 102.386 44.1117C102.454 43.9763 102.48 43.8156 102.48 43.6464C102.48 43.4772 102.446 43.308 102.386 43.1641C102.318 43.0203 102.232 42.9019 102.121 42.8003C102.01 42.6988 101.882 42.6227 101.737 42.5719C101.592 42.5212 101.439 42.4958 101.285 42.4958V42.4789Z" fill="#FFFFFD"/>
<path d="M108.787 42.0558C108.693 42.4619 108.582 42.8765 108.463 43.2995C108.343 43.7225 108.215 44.1286 108.079 44.5432C107.942 44.9492 107.797 45.3469 107.643 45.7445C107.49 46.1337 107.328 46.5059 107.157 46.8528C106.969 47.2335 106.781 47.5719 106.577 47.8765C106.372 48.1811 106.167 48.4349 105.945 48.6464C105.723 48.8579 105.493 49.0186 105.254 49.1371C105.015 49.2555 104.759 49.3063 104.503 49.3063C104.375 49.3063 104.255 49.2893 104.144 49.264C104.033 49.2386 103.931 49.1963 103.845 49.1455L103.931 48.6125C104.008 48.6633 104.101 48.6971 104.195 48.7225C104.289 48.7479 104.383 48.7563 104.494 48.7563C104.673 48.7563 104.853 48.7141 105.023 48.6295C105.194 48.5448 105.365 48.4264 105.527 48.2657C105.689 48.1134 105.843 47.9272 105.996 47.7073C106.15 47.4873 106.286 47.242 106.414 46.9712C106.218 46.5313 106.022 46.0998 105.843 45.6853C105.655 45.2623 105.484 44.8562 105.33 44.4501C105.168 44.044 105.023 43.6379 104.895 43.2487C104.759 42.8511 104.648 42.4535 104.545 42.0643H105.194C105.279 42.4196 105.382 42.775 105.501 43.1388C105.621 43.5025 105.749 43.8579 105.885 44.2217C106.022 44.5855 106.167 44.9408 106.321 45.2961C106.474 45.6514 106.628 45.9983 106.781 46.3452C106.935 45.9899 107.072 45.6345 107.208 45.2792C107.345 44.9239 107.464 44.5601 107.575 44.2047C107.686 43.841 107.797 43.4856 107.9 43.1303C108.002 42.775 108.087 42.4196 108.173 42.0728H108.796L108.787 42.0558Z" fill="#FFFFFD"/>
<path d="M131.951 28.4941C131.328 28.4941 130.825 28.9932 130.825 29.6108V33.5025C130.825 38.308 126.992 42.242 122.204 42.4619C121.752 41.3367 120.642 40.5415 119.353 40.5415C117.655 40.5415 116.281 41.912 116.281 43.5871C116.281 45.2623 117.664 46.6328 119.353 46.6328C120.651 46.6328 121.769 45.8291 122.213 44.6954C128.247 44.467 133.086 39.5347 133.086 33.4941V29.6024C133.086 28.9848 132.583 28.4856 131.96 28.4856L131.951 28.4941ZM119.345 44.8731C118.628 44.8731 118.048 44.2978 118.048 43.5871C118.048 42.8765 118.628 42.3012 119.345 42.3012C120.062 42.3012 120.642 42.8765 120.642 43.5871C120.642 44.2978 120.062 44.8731 119.345 44.8731Z" fill="#FFFFFD"/>
<path d="M147.246 43.9002C145.949 43.9002 144.848 44.6954 144.387 45.8206C140.956 45.6684 138.216 42.8596 138.216 39.4247V25.0338C138.216 24.4162 137.712 23.9171 137.089 23.9171C136.466 23.9171 135.963 24.4162 135.963 25.0338V39.4247C135.963 44.0948 139.718 47.9103 144.387 48.0626C144.839 49.1963 145.949 50 147.246 50C148.944 50 150.318 48.6294 150.318 46.9543C150.318 45.2792 148.936 43.9086 147.246 43.9086V43.9002ZM147.246 48.2318C146.529 48.2318 145.949 47.6565 145.949 46.9459C145.949 46.2352 146.529 45.6599 147.246 45.6599C147.963 45.6599 148.543 46.2352 148.543 46.9459C148.543 47.6565 147.963 48.2318 147.246 48.2318Z" fill="#FFFFFD"/>
<path d="M127.948 26.5905C127.871 25.9729 127.317 25.5415 126.694 25.6091C126.071 25.6853 125.627 26.2352 125.704 26.8528C125.823 27.9019 125.985 30.4822 124.739 31.8697C124.15 32.5296 123.297 32.8511 122.127 32.868C121.666 31.7513 120.565 30.9645 119.277 30.9645C117.578 30.9645 116.204 32.335 116.204 34.0102C116.204 35.6853 117.587 37.0558 119.277 37.0558C120.583 37.0558 121.701 36.2437 122.144 35.1015C123.962 35.0761 125.405 34.4924 126.429 33.3503C128.213 31.3621 128.145 28.2572 127.948 26.5905ZM119.277 35.2961C118.56 35.2961 117.979 34.7208 117.979 34.0102C117.979 33.2995 118.56 32.7242 119.277 32.7242C119.994 32.7242 120.574 33.2995 120.574 34.0102C120.574 34.7208 119.994 35.2961 119.277 35.2961Z" fill="#FFFFFD"/>
<path d="M154.919 36.1929C153.647 36.1929 152.555 36.9628 152.085 38.0541C147.237 37.8934 143.345 33.934 143.345 29.0948C143.345 28.4772 142.842 27.978 142.219 27.978C141.596 27.978 141.092 28.4772 141.092 29.0948C141.092 35.1523 145.974 40.1015 152.043 40.2961C152.478 41.4636 153.604 42.3012 154.927 42.3012C156.626 42.3012 158 40.9306 158 39.2555C158 37.5804 156.617 36.2098 154.927 36.2098L154.919 36.1929ZM154.919 40.5245C154.202 40.5245 153.622 39.9492 153.622 39.2386C153.622 38.5279 154.202 37.9526 154.919 37.9526C155.636 37.9526 156.216 38.5279 156.216 39.2386C156.216 39.9492 155.636 40.5245 154.919 40.5245Z" fill="#FFFFFD"/>
<path d="M134.529 0C128.366 0 123.356 4.96616 123.356 11.0745C123.356 13.401 124.065 17.3096 124.748 21.0914C125.149 23.2995 125.524 25.3892 125.695 26.8528C125.763 27.4196 126.25 27.8426 126.813 27.8426C126.856 27.8426 126.898 27.8426 126.95 27.8426C127.573 27.7665 128.017 27.2166 127.94 26.599C127.76 25.0677 127.376 22.9526 126.967 20.7022C126.335 17.1912 125.61 13.2064 125.61 11.0829C125.61 6.20981 129.604 2.25042 134.52 2.25042C139.436 2.25042 143.431 6.20981 143.431 11.0829C143.431 12.8342 142.85 15.8883 142.287 18.8325C141.741 21.6921 141.178 24.6531 141.092 26.6836C141.075 27.1404 141.067 27.775 141.067 28.2318C141.067 28.4772 141.067 28.7056 141.067 28.8663C141.067 28.934 141.067 28.9932 141.067 29.0694C141.067 29.0778 141.067 29.0948 141.067 29.1032C141.084 29.4416 141.169 29.8054 141.604 30.0761C141.783 30.1861 141.988 30.2453 142.202 30.2453C142.389 30.2453 142.577 30.1946 142.748 30.1015C143.106 29.9069 143.328 29.5178 143.328 29.1117C143.328 29.0948 143.328 29.0694 143.328 29.0525C143.328 28.7902 143.328 27.4958 143.354 26.7851C143.431 24.9154 143.977 22.0389 144.506 19.2555C145.112 16.066 145.684 13.0541 145.684 11.0914C145.684 4.98308 140.674 0.0169209 134.512 0.0169209L134.529 0Z" fill="#FFFFFD"/>
</svg>
